<?xml version="1.0" encoding="UTF-8"?>
<!DOCTYPE svg PUBLIC "-//W3C//DTD SVG 1.1//EN" "http://www.w3.org/Graphics/SVG/1.1/DTD/svg11.dtd">
<svg version="1.1" xmlns="http://www.w3.org/2000/svg" xmlns:xlink="http://www.w3.org/1999/xlink" x="0" y="0" width="377.043" height="61" viewBox="0, 0, 377.043, 61">
  <g id="Ebene_1">
    <g>
      <path d="M17.963,19.065 C16.365,21.146 13.982,22.343 10.809,22.658 C10.389,22.7 9.864,22.731 9.234,22.751 C8.603,22.772 7.846,22.784 6.965,22.784 L1.481,22.784 L1.481,-0 L8.161,-0 C10.808,-0 12.91,0.314 14.464,0.946 C18.308,2.564 20.23,6.019 20.23,11.313 C20.231,14.57 19.475,17.154 17.963,19.065 z M13.898,3.624 C12.659,2.722 10.683,2.269 7.974,2.269 L4.444,2.269 L4.444,20.483 L8.541,20.483 C11.566,20.483 13.772,19.695 15.158,18.12 C16.481,16.649 17.143,14.381 17.143,11.313 C17.143,7.721 16.061,5.158 13.898,3.624 z" fill="#0018A8"/>
      <path d="M25.21,15.348 L25.21,15.662 C25.21,17.218 25.608,18.519 26.408,19.569 C27.248,20.704 28.445,21.271 30,21.271 C32.354,21.271 33.719,20.063 34.097,17.646 L36.744,17.646 C36.43,19.496 35.661,20.868 34.443,21.76 C33.225,22.651 31.67,23.097 29.78,23.097 C27.364,23.097 25.514,22.362 24.233,20.892 C23.035,19.485 22.436,17.551 22.436,15.094 C22.436,12.594 23.057,10.577 24.296,9.044 C25.619,7.404 27.521,6.586 30,6.586 C34.559,6.586 36.839,9.507 36.839,15.347 L25.21,15.347 z M33.088,10.021 C32.374,8.992 31.312,8.477 29.905,8.477 C28.519,8.477 27.415,8.992 26.596,10.021 C25.84,10.946 25.398,12.112 25.273,13.52 L34.096,13.52 C34.117,12.112 33.781,10.947 33.088,10.021 z" fill="#0018A8"/>
      <path d="M50.925,22.784 L50.8,20.263 C49.518,22.05 47.805,22.942 45.663,22.942 C43.603,22.942 42.122,22.406 41.22,21.335 C40.379,20.369 39.959,18.845 39.959,16.766 L39.959,6.871 L42.732,6.871 L42.732,15.695 C42.732,17.396 42.921,18.605 43.298,19.319 C43.824,20.349 44.863,20.863 46.419,20.863 C49.339,20.863 50.8,19.003 50.8,15.284 L50.8,6.871 L53.571,6.871 L53.571,14.592 C53.571,16.756 53.577,18.515 53.588,19.869 C53.599,21.224 53.614,22.196 53.635,22.785 L50.925,22.785 z" fill="#0018A8"/>
      <path d="M63.892,22.864 C63.462,22.894 63.068,22.909 62.71,22.909 C60.126,22.909 58.834,21.691 58.834,19.254 L58.834,8.792 L55.714,8.792 L55.714,6.87 L58.834,6.87 L58.834,3.782 L61.606,2.616 L61.606,6.87 L65.168,6.87 L65.168,8.792 L61.606,8.792 L61.606,18.15 C61.606,19.138 61.722,19.8 61.953,20.137 C62.226,20.577 62.836,20.798 63.781,20.798 C63.949,20.798 64.201,20.773 64.537,20.718 C64.873,20.666 65.115,20.64 65.262,20.64 L65.262,22.75 C64.779,22.794 64.322,22.831 63.892,22.864 z" fill="#0018A8"/>
      <path d="M77.3,22.028 C76.144,22.743 74.673,23.098 72.888,23.098 C68.749,23.098 66.68,21.387 66.68,17.963 L69.453,17.963 C69.6,20.127 70.787,21.209 73.015,21.209 C73.959,21.209 74.767,21 75.442,20.579 C76.218,20.075 76.608,19.382 76.608,18.498 C76.608,17.532 76.029,16.787 74.874,16.262 C74.497,16.094 73.499,15.809 71.881,15.411 C70.41,15.032 69.317,14.581 68.604,14.056 C67.595,13.342 67.092,12.334 67.092,11.031 C67.092,9.519 67.753,8.352 69.078,7.533 C70.169,6.84 71.524,6.493 73.142,6.493 C76.902,6.493 78.846,8.1 78.972,11.315 L76.23,11.315 C76.168,9.361 75.117,8.384 73.079,8.384 C72.239,8.384 71.513,8.563 70.905,8.919 C70.169,9.36 69.802,9.97 69.802,10.747 C69.802,11.588 70.296,12.249 71.283,12.732 C71.703,12.942 72.796,13.279 74.56,13.741 C75.316,13.951 75.968,14.166 76.514,14.387 C77.059,14.607 77.501,14.855 77.837,15.126 C78.846,15.863 79.35,16.882 79.35,18.184 C79.348,19.864 78.665,21.145 77.3,22.028 z" fill="#0018A8"/>
      <path d="M93.685,21.713 C92.508,22.637 90.976,23.098 89.084,23.098 C87.845,23.098 86.748,22.909 85.791,22.532 C84.835,22.154 84.031,21.613 83.38,20.909 C82.73,20.204 82.231,19.354 81.884,18.356 C81.537,17.359 81.363,16.239 81.363,15 C81.363,12.458 82.036,10.421 83.38,8.887 C84.788,7.247 86.742,6.429 89.241,6.429 C91.09,6.429 92.598,6.897 93.763,7.832 C94.93,8.767 95.586,10.159 95.733,12.007 L93.022,12.007 C92.875,9.591 91.615,8.383 89.24,8.383 C87.518,8.383 86.225,9.066 85.365,10.431 C84.65,11.523 84.293,13.005 84.293,14.874 C84.293,16.576 84.661,18.015 85.396,19.191 C86.258,20.558 87.497,21.24 89.115,21.24 C90.271,21.24 91.2,20.893 91.904,20.2 C92.608,19.507 93.001,18.582 93.086,17.428 L95.701,17.428 L95.796,17.46 C95.671,19.287 94.967,20.704 93.685,21.713 z" fill="#0018A8"/>
      <path d="M109.348,22.784 L109.348,13.96 C109.348,12.279 109.159,11.072 108.78,10.337 C108.235,9.286 107.194,8.761 105.661,8.761 C104.168,8.761 103.035,9.329 102.257,10.463 C101.606,11.43 101.281,12.732 101.281,14.37 L101.281,22.785 L98.508,22.785 L98.508,-0 L101.281,-0 L101.281,9.359 C102.583,7.553 104.295,6.65 106.418,6.65 C110.219,6.65 112.121,8.73 112.121,12.889 L112.121,22.784 L109.348,22.784 z" fill="#0018A8"/>
      <path d="M118.013,15.348 L118.013,15.662 C118.013,17.218 118.412,18.519 119.211,19.569 C120.051,20.704 121.249,21.271 122.804,21.271 C125.157,21.271 126.522,20.063 126.9,17.646 L129.547,17.646 C129.233,19.496 128.464,20.868 127.246,21.76 C126.028,22.651 124.473,23.097 122.583,23.097 C120.166,23.097 118.317,22.362 117.036,20.892 C115.838,19.485 115.24,17.551 115.24,15.094 C115.24,12.594 115.86,10.577 117.099,9.044 C118.422,7.404 120.324,6.586 122.803,6.586 C127.362,6.586 129.641,9.507 129.641,15.347 L118.013,15.347 z M125.891,10.021 C125.178,8.992 124.116,8.477 122.708,8.477 C121.322,8.477 120.219,8.992 119.4,10.021 C118.643,10.946 118.202,12.112 118.077,13.52 L126.899,13.52 C126.921,12.112 126.585,10.947 125.891,10.021 z" fill="#0018A8"/>
      <path d="M148.076,22.784 L140.418,22.784 L140.418,-0 L148.454,-0 C150.449,-0 152.099,0.441 153.401,1.323 C154.935,2.332 155.702,3.792 155.702,5.704 C155.702,8.393 154.284,10.115 151.448,10.871 C154.892,11.502 156.615,13.361 156.615,16.45 C156.616,20.672 153.769,22.784 148.076,22.784 z M148.171,2.332 L143.318,2.332 L143.318,9.926 L147.729,9.926 C151.007,9.926 152.645,8.603 152.645,5.956 C152.644,3.541 151.153,2.332 148.171,2.332 z M148.139,12.1 L143.318,12.1 L143.318,20.451 L147.225,20.451 C149.136,20.451 150.565,20.242 151.511,19.821 C152.854,19.191 153.528,18.026 153.528,16.324 C153.528,13.509 151.731,12.1 148.139,12.1 z" fill="#0018A8"/>
      <path d="M169.977,22.784 C169.935,22.554 169.893,22.253 169.85,21.885 C169.809,21.518 169.757,21.072 169.693,20.546 C168.516,22.247 166.72,23.098 164.305,23.098 C162.728,23.098 161.427,22.731 160.396,21.995 C159.282,21.135 158.727,19.937 158.727,18.403 C158.727,14.854 161.763,13.078 167.835,13.078 C167.939,13.078 168.118,13.078 168.369,13.078 C168.643,13.078 168.988,13.089 169.41,13.109 C169.389,12.9 169.378,12.721 169.378,12.574 C169.378,12.428 169.378,12.301 169.378,12.196 C169.378,9.633 168.223,8.351 165.912,8.351 C163.874,8.351 162.772,9.287 162.603,11.157 L159.893,11.157 C159.957,9.538 160.597,8.341 161.815,7.565 C162.866,6.893 164.211,6.556 165.849,6.556 C167.95,6.556 169.484,6.996 170.45,7.879 C171.417,8.761 171.9,10.222 171.9,12.26 L171.9,18.121 C171.9,20.2 172.068,21.756 172.404,22.785 L169.977,22.785 z M167.992,14.748 C163.664,14.748 161.5,15.924 161.5,18.278 C161.5,19.202 161.857,19.947 162.571,20.515 C163.222,21.019 164.032,21.271 164.998,21.271 C166.827,21.271 168.066,20.599 168.717,19.253 C169.178,18.351 169.41,16.88 169.41,14.842 C168.486,14.78 168.012,14.748 167.992,14.748 z" fill="#0018A8"/>
      <path d="M186.994,22.784 L186.994,13.96 C186.994,12.279 186.806,11.072 186.427,10.337 C185.901,9.307 184.863,8.793 183.308,8.793 C180.387,8.793 178.928,10.81 178.928,14.844 L178.928,22.785 L176.154,22.785 L176.154,10.967 C176.154,9.79 176.123,8.426 176.059,6.87 L178.801,6.87 L178.896,9.422 C180.178,7.594 181.911,6.681 184.095,6.681 C187.877,6.681 189.767,8.751 189.767,12.889 L189.767,22.784 L186.994,22.784 z" fill="#0018A8"/>
      <path d="M194.021,22.784 L194.021,-0 L196.794,-0 L196.794,22.784 L194.021,22.784 z M204.641,22.784 L196.89,13.802 L204.042,6.838 L207.571,6.838 L200.166,13.708 L208.202,22.784 L204.641,22.784 z" fill="#0018A8"/>
      <path d="M18.121,49.934 C16.314,52.266 13.698,53.431 10.273,53.431 C6.849,53.431 4.244,52.296 2.458,50.027 C0.819,47.948 -0,45.165 -0,41.678 C-0,38.274 0.84,35.49 2.521,33.325 C4.369,30.993 6.965,29.826 10.305,29.826 C13.75,29.826 16.365,30.942 18.151,33.17 C19.769,35.227 20.578,38.01 20.578,41.519 C20.579,45.027 19.759,47.833 18.121,49.934 z M15.914,35.124 C14.674,33.171 12.794,32.192 10.273,32.192 C7.816,32.192 5.957,33.191 4.696,35.186 C3.645,36.867 3.12,39.009 3.12,41.614 C3.12,44.282 3.634,46.445 4.664,48.104 C5.924,50.122 7.795,51.13 10.273,51.13 C12.773,51.13 14.643,50.121 15.882,48.104 C16.934,46.426 17.459,44.26 17.459,41.614 C17.459,38.903 16.943,36.74 15.914,35.124 z" fill="#0098DB"/>
      <path d="M34.759,53.086 L34.759,44.261 C34.759,42.58 34.569,41.372 34.19,40.639 C33.665,39.61 32.626,39.093 31.071,39.093 C28.15,39.093 26.691,41.111 26.691,45.144 L26.691,53.086 L23.918,53.086 L23.918,41.268 C23.918,40.092 23.886,38.725 23.823,37.17 L26.564,37.17 L26.659,39.722 C27.941,37.894 29.674,36.98 31.859,36.98 C35.641,36.98 37.53,39.052 37.53,43.19 L37.53,53.086 L34.759,53.086 z" fill="#0098DB"/>
      <path d="M41.786,53.086 L41.786,30.301 L44.559,30.301 L44.559,53.086 L41.786,53.086 z" fill="#0098DB"/>
      <path d="M48.656,33.106 L48.656,30.3 L51.744,30.3 L51.744,33.106 L48.656,33.106 z M48.813,53.086 L48.813,37.171 L51.586,37.171 L51.586,53.086 L48.813,53.086 z" fill="#0098DB"/>
      <path d="M66.68,53.086 L66.68,44.261 C66.68,42.58 66.491,41.372 66.112,40.639 C65.587,39.61 64.548,39.093 62.993,39.093 C60.073,39.093 58.613,41.111 58.613,45.144 L58.613,53.086 L55.84,53.086 L55.84,41.268 C55.84,40.092 55.809,38.725 55.746,37.17 L58.487,37.17 L58.582,39.722 C59.864,37.894 61.597,36.98 63.782,36.98 C67.564,36.98 69.453,39.052 69.453,43.19 L69.453,53.086 L66.68,53.086 z" fill="#0098DB"/>
      <path d="M75.345,45.647 L75.345,45.962 C75.345,47.517 75.743,48.818 76.543,49.87 C77.383,51.004 78.58,51.572 80.135,51.572 C82.488,51.572 83.854,50.364 84.231,47.947 L86.879,47.947 C86.564,49.797 85.796,51.168 84.578,52.06 C83.36,52.951 81.805,53.399 79.914,53.399 C77.498,53.399 75.648,52.663 74.368,51.192 C73.17,49.787 72.571,47.852 72.571,45.395 C72.571,42.895 73.191,40.879 74.43,39.344 C75.753,37.704 77.656,36.885 80.134,36.885 C84.694,36.885 86.973,39.806 86.973,45.646 L75.345,45.646 z M83.224,40.322 C82.51,39.295 81.448,38.777 80.041,38.777 C78.655,38.777 77.552,39.295 76.733,40.322 C75.976,41.247 75.535,42.414 75.41,43.82 L84.232,43.82 C84.253,42.414 83.917,41.247 83.224,40.322 z" fill="#0098DB"/>
      <path d="M98.319,53.086 L90.661,53.086 L90.661,30.301 L98.697,30.301 C100.693,30.301 102.343,30.744 103.645,31.624 C105.179,32.633 105.946,34.094 105.946,36.006 C105.946,38.695 104.528,40.417 101.692,41.174 C105.136,41.804 106.86,43.662 106.86,46.751 C106.859,50.975 104.012,53.086 98.319,53.086 z M98.414,32.633 L93.56,32.633 L93.56,40.228 L97.972,40.228 C101.249,40.228 102.888,38.904 102.888,36.257 C102.888,33.843 101.396,32.633 98.414,32.633 z M98.382,42.402 L93.561,42.402 L93.561,50.754 L97.468,50.754 C99.38,50.754 100.808,50.543 101.754,50.122 C103.097,49.492 103.771,48.328 103.771,46.626 C103.77,43.81 101.974,42.402 98.382,42.402 z" fill="#0098DB"/>
      <path d="M120.22,53.086 C120.177,52.855 120.136,52.556 120.093,52.187 C120.051,51.82 120,51.375 119.935,50.849 C118.759,52.548 116.963,53.401 114.548,53.401 C112.971,53.401 111.669,53.034 110.639,52.297 C109.525,51.436 108.969,50.238 108.969,48.704 C108.969,45.156 112.005,43.38 118.077,43.38 C118.181,43.38 118.359,43.38 118.611,43.38 C118.885,43.38 119.23,43.39 119.652,43.411 C119.631,43.2 119.62,43.022 119.62,42.876 C119.62,42.729 119.62,42.602 119.62,42.497 C119.62,39.934 118.465,38.652 116.154,38.652 C114.116,38.652 113.013,39.588 112.845,41.458 L110.135,41.458 C110.198,39.839 110.839,38.642 112.057,37.864 C113.109,37.192 114.453,36.856 116.091,36.856 C118.192,36.856 119.726,37.295 120.692,38.178 C121.659,39.062 122.142,40.522 122.142,42.561 L122.142,48.422 C122.142,50.499 122.31,52.056 122.646,53.085 L120.22,53.085 z M118.234,45.049 C113.906,45.049 111.742,46.225 111.742,48.579 C111.742,49.504 112.099,50.249 112.813,50.815 C113.464,51.32 114.274,51.573 115.24,51.573 C117.069,51.573 118.308,50.901 118.958,49.555 C119.42,48.652 119.652,47.181 119.652,45.143 C118.728,45.081 118.254,45.049 118.234,45.049 z" fill="#0098DB"/>
      <path d="M137.236,53.086 L137.236,44.261 C137.236,42.58 137.047,41.372 136.668,40.639 C136.142,39.61 135.103,39.093 133.549,39.093 C130.628,39.093 129.168,41.111 129.168,45.144 L129.168,53.086 L126.395,53.086 L126.395,41.268 C126.395,40.092 126.363,38.725 126.3,37.17 L129.041,37.17 L129.136,39.722 C130.417,37.894 132.151,36.98 134.335,36.98 C138.117,36.98 140.007,39.052 140.007,43.19 L140.007,53.086 L137.236,53.086 z" fill="#0098DB"/>
      <path d="M144.264,53.086 L144.264,30.301 L147.037,30.301 L147.037,53.086 L144.264,53.086 z M154.883,53.086 L147.131,44.105 L154.283,37.14 L157.812,37.14 L150.408,44.01 L158.444,53.086 L154.883,53.086 z" fill="#0098DB"/>
      <path d="M160.24,33.106 L160.24,30.3 L163.328,30.3 L163.328,33.106 L160.24,33.106 z M160.397,53.086 L160.397,37.171 L163.17,37.171 L163.17,53.086 L160.397,53.086 z" fill="#0098DB"/>
      <path d="M178.265,53.086 L178.265,44.261 C178.265,42.58 178.076,41.372 177.697,40.639 C177.171,39.61 176.132,39.093 174.578,39.093 C171.657,39.093 170.197,41.111 170.197,45.144 L170.197,53.086 L167.424,53.086 L167.424,41.268 C167.424,40.092 167.392,38.725 167.329,37.17 L170.071,37.17 L170.166,39.722 C171.447,37.894 173.18,36.98 175.365,36.98 C179.147,36.98 181.037,39.052 181.037,43.19 L181.037,53.086 L178.265,53.086 z" fill="#0098DB"/>
      <path d="M199.22,39.062 C199.2,39.966 199.189,41.173 199.189,42.685 L199.189,48.579 C199.189,52.297 198.843,54.861 198.15,56.267 C197.099,58.347 194.947,59.387 191.689,59.387 C187.298,59.387 185.103,57.77 185.103,54.534 L187.813,54.534 C187.792,56.509 189.074,57.494 191.658,57.494 C193.234,57.494 194.399,57.064 195.156,56.204 C195.828,55.426 196.226,54.27 196.353,52.737 C196.374,52.486 196.39,52.138 196.4,51.697 C196.412,51.257 196.416,50.731 196.416,50.121 C195.178,51.991 193.423,52.927 191.154,52.927 C188.884,52.927 187.12,52.139 185.859,50.564 C184.726,49.156 184.157,47.276 184.157,44.923 C184.157,42.652 184.735,40.785 185.891,39.313 C187.193,37.695 188.937,36.886 191.121,36.886 C193.536,36.886 195.333,37.885 196.511,39.88 L196.511,37.17 L199.316,37.17 C199.273,37.528 199.242,38.158 199.22,39.062 z M195.345,40.73 C194.504,39.451 193.327,38.808 191.815,38.808 C190.197,38.808 188.98,39.472 188.16,40.794 C187.467,41.909 187.12,43.315 187.12,45.018 C187.12,46.699 187.467,48.074 188.16,49.146 C189,50.426 190.209,51.069 191.783,51.069 C193.401,51.069 194.621,50.397 195.44,49.051 C196.112,47.939 196.448,46.509 196.448,44.764 C196.448,43.19 196.079,41.847 195.345,40.73 z" fill="#0098DB"/>
      <path d="M226.447,48.423 C227.078,49.03 227.818,49.761 228.668,50.611 C229.52,51.462 230.386,52.288 231.27,53.086 L227.298,53.086 C227.025,52.814 226.641,52.423 226.149,51.919 C225.655,51.414 225.198,50.953 224.777,50.532 C223.959,51.374 222.945,52.077 221.737,52.642 C220.528,53.21 219.178,53.495 217.688,53.495 C216.637,53.495 215.628,53.379 214.663,53.146 C213.696,52.917 212.841,52.539 212.094,52.013 C211.349,51.487 210.75,50.801 210.299,49.949 C209.847,49.099 209.62,48.053 209.62,46.815 C209.62,46.1 209.71,45.465 209.89,44.907 C210.068,44.35 210.304,43.85 210.599,43.411 C210.892,42.971 211.233,42.575 211.622,42.229 C212.011,41.881 212.425,41.562 212.866,41.268 C213.055,41.142 213.354,40.958 213.764,40.716 C214.173,40.475 214.547,40.259 214.882,40.07 C214.526,39.647 214.173,39.217 213.828,38.776 C213.48,38.337 213.176,37.884 212.912,37.423 C212.65,36.96 212.441,36.483 212.283,35.988 C212.125,35.495 212.046,34.996 212.046,34.491 C212.046,33.651 212.209,32.936 212.535,32.346 C212.86,31.758 213.285,31.276 213.81,30.898 C214.335,30.519 214.934,30.247 215.607,30.078 C216.279,29.911 216.962,29.825 217.655,29.825 C218.37,29.825 219.068,29.894 219.751,30.032 C220.434,30.169 221.038,30.41 221.564,30.756 C222.087,31.104 222.514,31.566 222.839,32.144 C223.164,32.722 223.327,33.451 223.327,34.332 C223.327,35.068 223.2,35.734 222.948,36.333 C222.696,36.933 222.36,37.479 221.94,37.974 C221.52,38.467 221.026,38.913 220.46,39.312 C219.893,39.711 219.294,40.091 218.663,40.448 C219.042,40.867 219.477,41.341 219.971,41.867 C220.464,42.392 220.985,42.931 221.531,43.488 C222.077,44.044 222.619,44.596 223.154,45.142 C223.691,45.689 224.177,46.182 224.62,46.624 C224.872,46.141 225.082,45.603 225.25,45.017 C225.418,44.429 225.555,43.835 225.66,43.237 C225.764,42.638 225.838,42.06 225.879,41.504 C225.922,40.947 225.942,40.458 225.942,40.039 L228.81,40.039 C228.81,40.543 228.759,41.155 228.653,41.881 C228.547,42.607 228.396,43.354 228.197,44.117 C227.996,44.887 227.75,45.646 227.455,46.404 C227.162,47.16 226.826,47.833 226.447,48.423 z M223.076,48.798 C222.613,48.316 222.094,47.776 221.515,47.177 C220.936,46.578 220.349,45.963 219.75,45.332 C219.151,44.703 218.558,44.078 217.97,43.458 C217.381,42.839 216.835,42.256 216.331,41.709 C215.091,42.445 214.161,43.174 213.542,43.898 C212.923,44.622 212.612,45.522 212.612,46.591 C212.612,47.453 212.758,48.18 213.053,48.767 C213.348,49.356 213.741,49.835 214.236,50.203 C214.727,50.569 215.285,50.837 215.905,51.005 C216.524,51.172 217.16,51.258 217.811,51.258 C218.42,51.258 218.995,51.191 219.529,51.053 C220.065,50.918 220.553,50.733 220.994,50.5 C221.435,50.271 221.83,50.009 222.177,49.712 C222.524,49.419 222.824,49.113 223.076,48.798 z M217.264,38.903 C217.681,38.652 218.093,38.39 218.501,38.118 C218.909,37.843 219.269,37.533 219.582,37.187 C219.895,36.839 220.147,36.446 220.335,36.005 C220.523,35.563 220.617,35.069 220.617,34.523 C220.617,33.579 220.34,32.907 219.786,32.507 C219.233,32.109 218.558,31.908 217.765,31.908 C217.034,31.908 216.385,32.123 215.822,32.554 C215.258,32.985 214.975,33.621 214.975,34.46 C214.975,35.32 215.189,36.095 215.618,36.777 C216.047,37.46 216.595,38.17 217.264,38.903 z" fill="#0098DB"/>
      <path d="M247.37,53.086 L239.712,53.086 L239.712,30.301 L247.747,30.301 C249.743,30.301 251.393,30.744 252.696,31.624 C254.229,32.633 254.997,34.094 254.997,36.006 C254.997,38.695 253.579,40.417 250.743,41.174 C254.186,41.804 255.909,43.662 255.909,46.751 C255.91,50.975 253.064,53.086 247.37,53.086 z M247.466,32.633 L242.612,32.633 L242.612,40.228 L247.024,40.228 C250.299,40.228 251.94,38.904 251.94,36.257 C251.941,33.843 250.449,32.633 247.466,32.633 z M247.433,42.402 L242.613,42.402 L242.613,50.754 L246.519,50.754 C248.431,50.754 249.859,50.543 250.806,50.122 C252.15,49.492 252.822,48.328 252.822,46.626 C252.822,43.81 251.027,42.402 247.433,42.402 z" fill="#0098DB"/>
      <path d="M267.24,39.661 C267.019,39.64 266.804,39.63 266.595,39.63 C263.695,39.63 262.245,41.256 262.245,44.514 L262.245,53.086 L259.472,53.086 L259.472,41.834 C259.472,42.17 259.441,40.617 259.378,37.171 L262.087,37.171 L262.212,39.723 C263.284,37.959 264.901,37.077 267.066,37.077 C267.214,37.077 267.361,37.083 267.509,37.093 C267.654,37.102 267.8,37.118 267.948,37.14 L267.948,39.756 C267.697,39.713 267.46,39.683 267.24,39.661 z" fill="#0098DB"/>
      <path d="M282.128,51.005 C280.679,52.604 278.757,53.401 276.362,53.401 C273.903,53.401 271.96,52.624 270.532,51.07 C269.186,49.578 268.514,47.571 268.514,45.049 C268.514,42.592 269.219,40.617 270.625,39.125 C272.031,37.593 273.955,36.824 276.393,36.824 C278.85,36.824 280.762,37.58 282.127,39.093 C283.494,40.584 284.176,42.571 284.176,45.049 C284.177,47.466 283.496,49.451 282.128,51.005 z M280.144,40.765 C279.283,39.462 278.023,38.809 276.363,38.809 C274.701,38.809 273.431,39.462 272.549,40.765 C271.815,41.877 271.447,43.307 271.447,45.049 C271.447,46.816 271.814,48.285 272.549,49.462 C273.432,50.849 274.701,51.539 276.363,51.539 C278.002,51.539 279.261,50.837 280.144,49.432 C280.9,48.234 281.277,46.773 281.277,45.049 C281.277,43.307 280.9,41.877 280.144,40.765 z" fill="#0098DB"/>
      <path d="M287.296,53.086 L287.296,30.301 L290.069,30.301 L290.069,53.086 L287.296,53.086 z M297.915,53.086 L290.165,44.105 L297.317,37.14 L300.846,37.14 L293.44,44.01 L301.477,53.086 L297.915,53.086 z" fill="#0098DB"/>
      <path d="M304.314,45.647 L304.314,45.962 C304.314,47.517 304.712,48.818 305.511,49.87 C306.353,51.004 307.548,51.572 309.103,51.572 C311.457,51.572 312.822,50.364 313.199,47.947 L315.847,47.947 C315.533,49.797 314.765,51.168 313.546,52.06 C312.327,52.951 310.773,53.399 308.884,53.399 C306.468,53.399 304.616,52.663 303.335,51.192 C302.138,49.787 301.54,47.852 301.54,45.395 C301.54,42.895 302.159,40.879 303.399,39.344 C304.723,37.704 306.624,36.885 309.102,36.885 C313.661,36.885 315.942,39.806 315.942,45.646 L304.314,45.646 z M312.193,40.322 C311.478,39.295 310.416,38.777 309.009,38.777 C307.622,38.777 306.519,39.295 305.7,40.322 C304.944,41.247 304.503,42.414 304.378,43.82 L313.198,43.82 C313.22,42.414 312.886,41.247 312.193,40.322 z" fill="#0098DB"/>
      <path d="M326.829,39.661 C326.608,39.64 326.391,39.63 326.183,39.63 C323.285,39.63 321.835,41.256 321.835,44.514 L321.835,53.086 L319.06,53.086 L319.06,41.834 C319.06,42.17 319.029,40.617 318.966,37.171 L321.677,37.171 L321.802,39.723 C322.874,37.959 324.491,37.077 326.656,37.077 C326.802,37.077 326.951,37.083 327.097,37.093 C327.243,37.102 327.39,37.118 327.538,37.14 L327.538,39.756 C327.287,39.713 327.05,39.683 326.829,39.661 z" fill="#0098DB"/>
      <path d="M339.417,53.086 C339.376,52.855 339.335,52.556 339.292,52.187 C339.249,51.82 339.198,51.375 339.134,50.849 C337.958,52.548 336.161,53.401 333.747,53.401 C332.169,53.401 330.868,53.034 329.837,52.297 C328.724,51.436 328.167,50.238 328.167,48.704 C328.167,45.156 331.204,43.38 337.274,43.38 C337.379,43.38 337.559,43.38 337.811,43.38 C338.082,43.38 338.43,43.39 338.85,43.411 C338.829,43.2 338.819,43.022 338.819,42.876 C338.819,42.729 338.819,42.602 338.819,42.497 C338.819,39.934 337.663,38.652 335.352,38.652 C333.315,38.652 332.211,39.588 332.043,41.458 L329.332,41.458 C329.396,39.839 330.037,38.642 331.256,37.864 C332.305,37.192 333.651,36.856 335.289,36.856 C337.389,36.856 338.924,37.295 339.889,38.178 C340.856,39.062 341.34,40.522 341.34,42.561 L341.34,48.422 C341.34,50.499 341.506,52.056 341.844,53.085 L339.417,53.085 z M337.433,45.049 C333.105,45.049 330.941,46.225 330.941,48.579 C330.941,49.504 331.298,50.249 332.011,50.815 C332.663,51.32 333.472,51.573 334.439,51.573 C336.267,51.573 337.507,50.901 338.158,49.555 C338.621,48.652 338.851,47.181 338.851,45.143 C337.927,45.081 337.453,45.049 337.433,45.049 z" fill="#0098DB"/>
      <path d="M359.523,39.062 C359.502,39.966 359.492,41.173 359.492,42.685 L359.492,48.579 C359.492,52.297 359.144,54.861 358.453,56.267 C357.4,58.347 355.248,59.387 351.992,59.387 C347.601,59.387 345.406,57.77 345.406,54.534 L348.117,54.534 C348.096,56.509 349.377,57.494 351.961,57.494 C353.535,57.494 354.701,57.064 355.459,56.204 C356.131,55.426 356.529,54.27 356.656,52.737 C356.676,52.486 356.693,52.138 356.703,51.697 C356.713,51.257 356.719,50.731 356.719,50.121 C355.481,51.991 353.727,52.927 351.457,52.927 C349.187,52.927 347.422,52.139 346.162,50.564 C345.027,49.156 344.461,47.276 344.461,44.923 C344.461,42.652 345.037,40.785 346.193,39.313 C347.496,37.695 349.24,36.886 351.423,36.886 C353.839,36.886 355.636,37.885 356.812,39.88 L356.812,37.17 L359.619,37.17 C359.576,37.528 359.544,38.158 359.523,39.062 z M355.646,40.73 C354.806,39.451 353.63,38.808 352.119,38.808 C350.5,38.808 349.281,39.472 348.463,40.794 C347.77,41.909 347.422,43.315 347.422,45.018 C347.422,46.699 347.77,48.074 348.463,49.146 C349.301,50.426 350.51,51.069 352.086,51.069 C353.705,51.069 354.924,50.397 355.742,49.051 C356.414,47.939 356.75,46.509 356.75,44.764 C356.749,43.19 356.382,41.847 355.646,40.73 z" fill="#0098DB"/>
      <path d="M365.415,45.647 L365.415,45.962 C365.415,47.517 365.813,48.818 366.612,49.87 C367.452,51.004 368.649,51.572 370.204,51.572 C372.558,51.572 373.925,50.364 374.302,47.947 L376.948,47.947 C376.634,49.797 375.866,51.168 374.647,52.06 C373.43,52.951 371.876,53.399 369.985,53.399 C367.567,53.399 365.717,52.663 364.438,51.192 C363.239,49.787 362.641,47.852 362.641,45.395 C362.641,42.895 363.26,40.879 364.5,39.344 C365.824,37.704 367.725,36.885 370.203,36.885 C374.762,36.885 377.043,39.806 377.043,45.646 L365.415,45.646 z M373.292,40.322 C372.579,39.295 371.517,38.777 370.11,38.777 C368.723,38.777 367.622,39.295 366.801,40.322 C366.045,41.247 365.604,42.414 365.479,43.82 L374.301,43.82 C374.324,42.414 373.988,41.247 373.292,40.322 z" fill="#0098DB"/>
    </g>
  </g>
</svg>
